<?xml version="1.0" encoding="UTF-8"?>
<svg version="1.1" xmlns="http://www.w3.org/2000/svg" width="48" height="19">
<path d="M0 0 C0.495 0.165 0.99 0.33 1.5 0.5 C1.5 1.16 1.5 1.82 1.5 2.5 C5.68243409 4.59121704 9.60532687 4.87722352 14.1953125 5.15625 C16.5 5.5 16.5 5.5 19.5 7.5 C20.20052461 10.163063 20.27744818 12.74035737 20.5 15.5 C16.56984444 17.36396741 13.68340508 17.68174004 9.359375 17.44140625 C8.20695312 17.38533203 7.05453125 17.32925781 5.8671875 17.27148438 C4.67351563 17.20251953 3.47984375 17.13355469 2.25 17.0625 C-0.12997371 16.93436709 -2.51017828 16.81042859 -4.890625 16.69140625 C-5.94282227 16.63154541 -6.99501953 16.57168457 -8.07910156 16.51000977 C-9.27744629 16.50505493 -9.27744629 16.50505493 -10.5 16.5 C-10.83 16.83 -11.16 17.16 -11.5 17.5 C-16.69040052 17.99432386 -19.92102388 16.69790854 -24.5 14.5 C-24.75 7.875 -24.75 7.875 -22.5 4.5 C-20.1171875 3.76953125 -20.1171875 3.76953125 -17.375 3.3125 C-16.46492188 3.15394531 -15.55484375 2.99539062 -14.6171875 2.83203125 C-13.56917969 2.66767578 -13.56917969 2.66767578 -12.5 2.5 C-12.5 1.84 -12.5 1.18 -12.5 0.5 C-8.76025568 -1.36987216 -4.03209172 -0.80641834 0 0 Z M-10.5 5.5 C-8.85 5.5 -7.2 5.5 -5.5 5.5 C-5.5 4.84 -5.5 4.18 -5.5 3.5 C-7.82357511 3.31509993 -7.82357511 3.31509993 -10.5 5.5 Z " fill="#E5E5E5" transform="translate(24.5,0.5)"/>
<path d="M0 0 C0.33 0 0.66 0 1 0 C1 2.97 1 5.94 1 9 C1.721875 8.979375 2.44375 8.95875 3.1875 8.9375 C6 9 6 9 8.75 9.5625 C9.4925 9.706875 10.235 9.85125 11 10 C11.33 9.67 11.66 9.34 12 9 C13.50259477 8.90089905 15.00976711 8.86920299 16.515625 8.8671875 C17.43730469 8.86589844 18.35898437 8.86460938 19.30859375 8.86328125 C20.76458984 8.86908203 20.76458984 8.86908203 22.25 8.875 C23.20519531 8.87113281 24.16039063 8.86726562 25.14453125 8.86328125 C26.07136719 8.86457031 26.99820312 8.86585937 27.953125 8.8671875 C28.80036133 8.86831543 29.64759766 8.86944336 30.52050781 8.87060547 C33 9 33 9 35.67089844 9.53564453 C38.16624873 10.03314519 39.6124026 9.7958658 42 9 C41.34 6.69 40.68 4.38 40 2 C40.99 2.33 41.98 2.66 43 3 C43.495 6.96 43.495 6.96 44 11 C40.06984444 12.86396741 37.18340508 13.18174004 32.859375 12.94140625 C31.13074219 12.85729492 31.13074219 12.85729492 29.3671875 12.77148438 C28.17351563 12.70251953 26.97984375 12.63355469 25.75 12.5625 C23.37002629 12.43436709 20.98982172 12.31042859 18.609375 12.19140625 C17.55717773 12.13154541 16.50498047 12.07168457 15.42089844 12.01000977 C14.22255371 12.00505493 14.22255371 12.00505493 13 12 C12.67 12.33 12.34 12.66 12 13 C6.80959948 13.49432386 3.57897612 12.19790854 -1 10 C-1.125 3.375 -1.125 3.375 0 0 Z " fill="#020202" transform="translate(1,5)"/>
<path d="M0 0 C0.7425 0.2475 0.7425 0.2475 1.5 0.5 C1.5 1.16 1.5 1.82 1.5 2.5 C2.49 2.83 3.48 3.16 4.5 3.5 C3.51 3.995 3.51 3.995 2.5 4.5 C2.5 5.16 2.5 5.82 2.5 6.5 C-2.5 6.5 -7.5 6.5 -12.5 6.5 C-12.83 5.51 -13.16 4.52 -13.5 3.5 C-14.16 3.17 -14.82 2.84 -15.5 2.5 C-14.51 2.5 -13.52 2.5 -12.5 2.5 C-12.5 1.84 -12.5 1.18 -12.5 0.5 C-8.76025568 -1.36987216 -4.03209172 -0.80641834 0 0 Z M-10.5 5.5 C-8.85 5.5 -7.2 5.5 -5.5 5.5 C-5.5 4.84 -5.5 4.18 -5.5 3.5 C-7.82357511 3.31509993 -7.82357511 3.31509993 -10.5 5.5 Z " fill="#BEBEBE" transform="translate(24.5,0.5)"/>
<path d="M0 0 C1.62418745 -0.08090971 3.24951745 -0.13914995 4.875 -0.1875 C5.77992187 -0.22230469 6.68484375 -0.25710937 7.6171875 -0.29296875 C8.79667969 -0.14794922 8.79667969 -0.14794922 10 0 C12.1519437 3.22791555 12.20086443 4.28400809 12 8 C9.42786866 9.61949011 8.32330841 10.04408751 5.25 9.625 C4.13625 9.315625 4.13625 9.315625 3 9 C1.7922442 5.37673261 2.45688872 4.35853631 4 1 C2.68 0.67 1.36 0.34 0 0 Z " fill="#B2B2B2" transform="translate(31,6)"/>
<path d="M0 0 C6.27 0 12.54 0 19 0 C19.33 0.66 19.66 1.32 20 2 C19.67 2.66 19.34 3.32 19 4 C12.73 4 6.46 4 0 4 C0 2.68 0 1.36 0 0 Z " fill="#E7E7E7" transform="translate(14,10)"/>
<path d="M0 0 C0.33 0 0.66 0 1 0 C1 2.97 1 5.94 1 9 C1.721875 8.979375 2.44375 8.95875 3.1875 8.9375 C6 9 6 9 8.75 9.5625 C9.4925 9.706875 10.235 9.85125 11 10 C11.33 9.67 11.66 9.34 12 9 C13.4887186 8.91330568 14.981445 8.89296506 16.47265625 8.90234375 C17.37177734 8.90556641 18.27089844 8.90878906 19.19726562 8.91210938 C20.14279297 8.92048828 21.08832031 8.92886719 22.0625 8.9375 C23.01189453 8.94201172 23.96128906 8.94652344 24.93945312 8.95117188 C27.29303065 8.9629989 29.64648477 8.97947975 32 9 C32 9.33 32 9.66 32 10 C25.73 10 19.46 10 13 10 C12.67 10.99 12.34 11.98 12 13 C6.76824163 13.38281159 3.62197306 12.21854707 -1 10 C-1.125 3.375 -1.125 3.375 0 0 Z " fill="#222222" transform="translate(1,5)"/>
<path d="M0 0 C2.625 0.375 2.625 0.375 5 1 C5.625 2.875 5.625 2.875 6 5 C5.34 5.66 4.68 6.32 4 7 C1.375 6.625 1.375 6.625 -1 6 C-1.625 4.125 -1.625 4.125 -2 2 C-1.34 1.34 -0.68 0.68 0 0 Z " fill="#ACACAC" transform="translate(8,9)"/>
<path d="M0 0 C0.66 0.66 1.32 1.32 2 2 C1 3 1 3 -0.76586914 3.11352539 C-1.51473389 3.10828857 -2.26359863 3.10305176 -3.03515625 3.09765625 C-3.84404297 3.09443359 -4.65292969 3.09121094 -5.48632812 3.08789062 C-6.33646484 3.07951172 -7.18660156 3.07113281 -8.0625 3.0625 C-8.91650391 3.05798828 -9.77050781 3.05347656 -10.65039062 3.04882812 C-12.76695663 3.03700373 -14.88348685 3.01906769 -17 3 C-17 2.34 -17 1.68 -17 1 C-14.20880221 0.77885585 -11.4178788 0.57256699 -8.625 0.375 C-7.43390625 0.27832031 -7.43390625 0.27832031 -6.21875 0.1796875 C-4.14971776 0.03941413 -2.07374464 0.01241763 0 0 Z " fill="#D7D7D7" transform="translate(32,10)"/>
<path d="M0 0 C8.57142857 -0.14285714 8.57142857 -0.14285714 12 1 C12 1.66 12 2.32 12 3 C12.99 3.33 13.98 3.66 15 4 C14.01 4.495 14.01 4.495 13 5 C13 5.66 13 6.32 13 7 C11.35 7 9.7 7 8 7 C8.99 5.35 9.98 3.7 11 2 C7.37 2 3.74 2 0 2 C0 1.34 0 0.68 0 0 Z " fill="#767676" transform="translate(14,0)"/>
<path d="M0 0 C0.99 0.33 1.98 0.66 3 1 C3.33 3.64 3.66 6.28 4 9 C1.69 9.66 -0.62 10.32 -3 11 C-2.34 9.68 -1.68 8.36 -1 7 C-0.01 7 0.98 7 2 7 C1.34 4.69 0.68 2.38 0 0 Z " fill="#131313" transform="translate(41,7)"/>
<path d="M0 0 C1.32 0 2.64 0 4 0 C4 1.65 4 3.3 4 5 C2.68 5 1.36 5 0 5 C0 3.35 0 1.7 0 0 Z " fill="#C8C8C8" transform="translate(8,11)"/>
<path d="M0 0 C1.32 0 2.64 0 4 0 C4 1.65 4 3.3 4 5 C2.68 4.67 1.36 4.34 0 4 C0 2.68 0 1.36 0 0 Z " fill="#D0D0D0" transform="translate(35,11)"/>
</svg>
